<svg width="60" height="60" viewBox="0 0 60 60" fill="none" xmlns="http://www.w3.org/2000/svg">
<rect width="60" height="60" rx="5" fill="white"/>
<path d="M33 33C33 38.5228 28.5228 43 23 43C17.4772 43 13 38.5228 13 33C13 27.4772 17.4772 23 23 23C28.5228 23 33 27.4772 33 33Z" fill="#F5F5F5" fill-opacity="0.5"/>
<path d="M21 17L19 19L23 23L27 19L25 17H21Z" fill="#81C6FF"/>
<path d="M23 23C17.4772 23 13 27.4772 13 33C13 38.5228 17.4772 43 23 43C28.5228 43 33 38.5228 33 33C33 27.4772 28.5228 23 23 23ZM23 23L19 19L21 17H25L27 19L23 23ZM47 33C47 38.5228 42.5228 43 37 43C31.4772 43 27 38.5228 27 33C27 27.4772 31.4772 23 37 23C42.5228 23 47 27.4772 47 33Z" stroke="black"/>
</svg>
